<?xml version="1.0" standalone="no"?>
<!DOCTYPE svg PUBLIC "-//W3C//DTD SVG 20010904//EN"
 "http://www.w3.org/TR/2001/REC-SVG-20010904/DTD/svg10.dtd">
<svg version="1.0" xmlns="http://www.w3.org/2000/svg"
 width="400.000000pt" height="300.000000pt" viewBox="0 0 400.000000 300.000000"
 preserveAspectRatio="xMidYMid meet">

<g transform="translate(0.000000,300.000000) scale(0.100000,-0.100000)"
fill="#000000" stroke="none">
<path d="M790 1878 c0 -9 5 -29 10 -45 10 -27 9 -27 -6 -8 -14 19 -15 17 -9
-28 14 -119 109 -213 339 -332 101 -53 102 -53 131 -37 17 10 32 20 33 25 2 4
10 7 18 7 8 0 14 5 14 11 0 7 -14 10 -35 7 -19 -2 -35 0 -35 5 0 5 -11 6 -25
3 -25 -6 -115 13 -115 25 0 4 -14 10 -30 14 -17 4 -28 11 -24 16 3 5 -2 9 -10
9 -22 0 -94 39 -109 59 -6 10 -20 20 -30 24 -10 4 -16 11 -12 16 3 6 -2 14
-11 19 -9 5 -14 15 -10 21 4 6 12 8 18 5 7 -4 8 -2 4 4 -4 6 -13 9 -20 6 -8
-3 -17 -1 -20 5 -12 19 38 6 79 -20 48 -31 85 -51 85 -46 0 2 -22 18 -49 36
-61 39 -131 116 -159 173 -12 24 -21 35 -22 26z"/>
<path d="M1747 1533 c-8 -7 -98 -41 -142 -53 -21 -6 -24 -8 -9 -9 33 -2 120
27 146 49 12 11 20 19 17 20 -3 0 -9 -3 -12 -7z"/>
<path d="M1488 1503 c7 -3 16 -2 19 1 4 3 -2 6 -13 5 -11 0 -14 -3 -6 -6z"/>
<path d="M1532 1470 c-14 -23 -10 -26 45 -32 18 -3 30 -1 27 4 -3 4 -19 8 -35
8 -26 0 -29 3 -24 20 8 26 3 25 -13 0z"/>
<path d="M1454 1474 c-6 -2 -9 -17 -6 -32 5 -35 -14 -51 -65 -58 -21 -3 -56
-15 -78 -27 -35 -18 -142 -44 -212 -50 -22 -2 -56 -27 -37 -27 6 0 33 7 60 15
27 8 65 14 84 13 71 -2 209 51 275 107 24 20 27 25 11 25 -13 0 -17 5 -13 20
5 20 2 22 -19 14z"/>
<path d="M1741 1378 c-1 -5 -3 -34 -3 -65 l-1 -58 43 -3 c28 -2 40 0 35 7 -3
6 -15 11 -26 11 -16 0 -19 8 -20 58 -1 50 -3 53 -9 22 l-7 -35 -5 35 c-2 19
-6 32 -7 28z"/>
<path d="M1882 1318 l-2 -68 36 0 c19 0 44 5 55 10 21 12 26 46 7 53 -10 3
-10 7 1 20 9 11 10 17 2 17 -6 0 -11 -4 -11 -9 0 -5 -11 -11 -25 -13 -19 -4
-25 -1 -25 13 0 22 11 24 28 7 9 -9 12 -9 12 0 0 10 -30 32 -44 32 -3 0 -6
-11 -6 -24 0 -38 -18 -41 -23 -4 -2 18 -5 3 -5 -34z m66 -31 c2 -10 -3 -17
-12 -17 -10 0 -16 9 -16 21 0 24 23 21 28 -4z"/>
<path d="M2077 1362 c2 -10 -5 -39 -16 -65 -11 -26 -16 -47 -11 -47 6 0 10 5
10 10 0 6 14 10 30 10 17 0 30 -4 30 -10 0 -5 9 -10 20 -10 25 0 25 -2 -4 65
-25 55 -44 78 -26 30 5 -14 6 -25 1 -25 -5 0 -14 14 -20 30 -11 32 -22 42 -14
12z m23 -63 c0 -5 -7 -9 -15 -9 -9 0 -12 6 -9 15 6 15 24 11 24 -6z"/>
<path d="M2200 1370 c0 -5 7 -10 15 -10 12 0 15 -13 15 -55 0 -48 2 -55 20
-55 18 0 20 7 20 55 0 42 3 55 15 55 8 0 15 5 15 10 0 6 -9 10 -20 10 -15 0
-20 -7 -21 -27 l-1 -28 -10 28 c-9 26 -48 40 -48 17z"/>
<path d="M2390 1349 c0 -17 -4 -28 -10 -24 -6 4 -10 -10 -10 -34 0 -30 4 -41
15 -41 9 0 15 9 15 25 0 14 4 25 10 25 5 0 12 -11 16 -25 4 -18 13 -25 30 -25
21 0 23 3 15 19 -6 10 -8 36 -6 57 4 32 3 34 -4 14 -9 -24 -9 -24 -10 -3 -1
21 -27 43 -50 43 -6 0 -11 -14 -11 -31z m38 -11 c-5 -32 -28 -35 -28 -4 0 17
5 26 16 26 10 0 14 -7 12 -22z"/>
<path d="M2573 1373 c-7 -2 -13 -14 -13 -25 0 -14 -5 -18 -15 -14 -20 7 -20
-32 1 -62 31 -44 104 -20 104 35 0 15 -3 23 -7 20 -4 -4 -12 6 -19 23 -13 29
-24 34 -51 23z m39 -28 c14 -31 0 -80 -22 -80 -10 0 -16 13 -18 39 -6 66 18
90 40 41z"/>
<path d="M2754 1372 c-7 -4 -14 -18 -16 -32 l-5 -25 -11 25 c-10 24 -11 24
-11 3 -1 -13 11 -30 30 -44 33 -23 25 -41 -14 -31 -14 3 -18 1 -13 -6 4 -7 22
-12 40 -12 60 0 76 53 23 78 -32 15 -36 32 -7 32 11 0 20 5 20 10 0 12 -20 13
-36 2z"/>
<path d="M1594 1364 c3 -6 -4 -35 -15 -65 -12 -31 -15 -49 -8 -41 15 14 59 16
59 2 0 -5 11 -10 24 -10 l25 0 -21 51 c-18 42 -23 48 -29 33 -4 -11 -8 -14 -8
-8 -1 5 -8 19 -17 30 -8 10 -13 14 -10 8z m15 -73 c-15 -5 -22 6 -14 19 6 9
10 9 16 -1 5 -8 4 -15 -2 -18z"/>
<path d="M1121 1339 c-13 -10 -19 -19 -14 -19 13 0 49 27 43 33 -3 3 -16 -3
-29 -14z"/>
</g>
</svg>
